<svg width="471" height="134" viewBox="0 0 471 134" fill="none"
    xmlns="http://www.w3.org/2000/svg">
    <g filter="url(#filter0_d_219_107)">
        <g clip-path="url(#clip0_219_107)">
            <path d="M202.672 57.3007C206.103 54.1979 210.298 52.6782 215.318 52.6782C220.402 52.6782 224.596 54.1979 228.028 57.3007C231.46 60.3401 233.175 64.3294 233.175 69.2051C233.175 74.0175 231.46 78.0068 228.028 81.0462C224.66 84.0223 220.466 85.542 215.382 85.542C210.298 85.542 206.103 84.0223 202.672 81.0462C199.304 78.0068 197.588 74.0175 197.588 69.2051C197.588 64.3294 199.304 60.3401 202.672 57.3007ZM215.382 76.7404C219.385 76.7404 222.563 73.7642 222.563 69.2051C222.563 64.5826 219.385 61.4799 215.382 61.4799C211.378 61.4799 208.201 64.5826 208.201 69.2051C208.201 73.7642 211.442 76.7404 215.382 76.7404Z" fill="white"/>
            <path d="M257.134 52.6782C252.685 52.6782 249.317 54.5145 247.156 58.1239H247.029L247.093 57.364V56.9208C247.093 54.7045 245.568 53.3748 242.708 53.3748H233.303V62.2398H235.654C236.607 62.2398 236.989 62.683 236.989 63.5695V84.7822H247.601V70.8515C247.601 69.2684 247.792 67.8754 248.237 66.7356C249.254 63.7595 251.351 62.2398 254.465 62.2398C256.816 62.2398 257.96 63.6328 257.96 66.3557V80.3497C257.96 83.4524 259.294 84.7822 262.408 84.7822H268.509V64.456C268.509 56.5408 264.696 52.6782 257.134 52.6782Z" fill="white"/>
            <path d="M276.071 41.2173V49.7657H284.968V41.2173H276.071ZM281.41 53.375H271.623V62.24H273.974C274.864 62.24 275.309 62.6832 275.309 63.5697V80.3499C275.309 83.4527 276.643 84.7824 279.757 84.7824H285.858V57.8708C285.858 54.7047 284.523 53.375 281.41 53.375Z" fill="white"/>
            <path d="M294.056 57.364C297.042 54.2613 301.046 52.6782 306.003 52.6782C310.515 52.6782 314.073 54.0713 316.679 56.9208C319.284 59.7069 320.619 63.3795 320.619 67.812C320.619 68.5719 320.555 69.6484 320.365 71.1047H300.474C301.237 74.7774 304.223 76.7404 307.846 76.7404C310.451 76.7404 313.374 75.7272 316.552 73.5743L320.492 80.9829C317.124 83.8323 311.913 85.542 307.02 85.542C301.681 85.542 297.487 83.8957 294.373 80.6663C291.259 77.4369 289.734 73.511 289.734 69.0785C289.607 64.3927 291.069 60.4668 294.056 57.364ZM310.133 65.0892C310.133 62.4297 308.418 60.4034 305.812 60.4034C303.143 60.4034 301.427 61.9865 300.728 65.0892H310.133Z" fill="white"/>
            <path d="M324.368 53.9449H329.897V56.6677C329.897 57.9342 329.706 59.0106 329.706 59.0106H329.833C331.803 55.2747 335.743 53.1851 340.255 53.1851C348.644 53.1851 353.855 59.7705 353.855 69.332C353.855 79.1468 347.945 85.479 339.811 85.479C335.871 85.479 332.312 83.516 330.215 80.2233H330.088C330.088 80.2233 330.342 81.2997 330.342 82.8828V96.9401H324.432V53.9449H324.368ZM338.921 80.4132C343.814 80.4132 347.881 76.424 347.881 69.4587C347.881 62.7466 344.259 58.4407 339.111 58.4407C334.472 58.4407 330.151 61.7334 330.151 69.522C330.151 74.9676 333.201 80.4132 338.921 80.4132Z" fill="white"/>
            <path d="M373.365 53.1851C382.643 53.1851 390.078 59.9604 390.078 69.2687C390.078 78.6402 382.579 85.4789 373.428 85.4789C364.15 85.4789 356.715 78.6402 356.715 69.2687C356.715 59.9604 364.214 53.1851 373.365 53.1851ZM373.428 80.4132C379.275 80.4132 384.104 75.7908 384.104 69.332C384.104 62.9365 379.275 58.3774 373.428 58.3774C367.518 58.3774 362.752 62.9365 362.752 69.332C362.816 75.7908 367.582 80.4132 373.428 80.4132Z" fill="white"/>
            <path d="M394.718 41.7241H400.818V47.6763H394.718V41.7241ZM394.845 53.9452H400.755V84.846H394.845V53.9452Z" fill="white"/>
            <path d="M407.427 53.9449H413.21V58.1241C413.21 59.3906 413.019 60.467 413.019 60.467H413.146C414.29 57.8075 418.103 53.1851 424.903 53.1851C432.211 53.1851 435.515 57.1743 435.515 65.0262V84.7825H429.605V66.3559C429.605 62.0501 428.779 58.6307 423.759 58.6307C417.722 58.6307 413.4 63.6331 413.4 69.9652V84.7825H407.49V53.9449H407.427Z" fill="white"/>
            <path d="M443.205 59.0741H439.138V54.2616H443.332V45.46H449.178V54.2616H456.677V59.0741H449.178V72.8781C449.178 79.0203 453.5 79.8435 455.788 79.8435C456.232 79.8435 456.614 79.8435 457.186 79.7168V84.9725C456.677 85.0358 456.042 85.1625 455.089 85.1625C451.085 85.1625 443.205 83.8961 443.205 73.5747V59.0741Z" fill="white"/>
            <path d="M194.22 66.1659L192.187 41.2173H179.794C179.794 41.2173 170.326 60.467 169.563 63.0632H169.436L159.522 41.2173H147.13L145.097 62.8732L143.381 84.8457H150.943C154.184 84.8457 155.519 83.4526 155.773 80.0333C155.773 80.0333 157.044 59.8971 156.853 56.9843H156.98L157.362 58.3141C157.87 60.0871 164.924 77.2472 164.924 77.2472H174.202C174.202 77.2472 181.256 60.3403 182.146 56.9843H182.273L183.353 80.0333C183.607 83.4526 184.942 84.8457 188.183 84.8457H195.745L194.22 66.1659Z" fill="white"/>
            <path fill-rule="evenodd" clip-rule="evenodd" d="M66.9999 116H67.3812C92.0382 116 108.561 110.871 111.993 107.642C115.615 104.412 120.381 87.632 120.381 63C120.381 38.368 115.615 21.5878 111.993 18.3584C108.561 15.1924 92.0382 10.0633 67.3812 10H66.9999C42.4064 10.0633 25.8201 15.1924 22.3885 18.3584C18.7662 21.5878 14 38.368 14 63C14 87.6953 18.7662 104.412 22.3885 107.642C25.8201 110.808 42.3429 115.937 66.9999 116ZM89.6859 41.4075L91.7194 66.1662L93.1175 84.656H85.6187C82.4413 84.656 81.1068 83.2629 80.8526 79.8436L79.7722 56.9846H79.6451C78.7555 60.3406 71.7651 77.1208 71.7651 77.1208H62.5505C62.5505 77.1208 55.5601 60.0873 55.0517 58.3143L54.6704 56.9846H54.5433C54.734 59.8973 53.463 79.8436 53.463 79.8436C53.2088 83.2629 51.9378 84.656 48.6968 84.656H41.198L42.9138 62.8735L44.9474 41.4075H57.2759L67.126 63.0634H67.2531C68.0792 60.4672 77.4209 41.4075 77.4209 41.4075H89.6859Z" fill="white"/>
        </g>
    </g>
    <defs>
        <filter id="filter0_d_219_107" x="0" y="0" width="471" height="134" filterUnits="userSpaceOnUse" color-interpolation-filters="sRGB">
            <feFlood flood-opacity="0" result="BackgroundImageFix"/>
            <feColorMatrix in="SourceAlpha" type="matrix" values="0 0 0 0 0 0 0 0 0 0 0 0 0 0 0 0 0 0 127 0" result="hardAlpha"/>
            <feOffset dy="4"/>
            <feGaussianBlur stdDeviation="7"/>
            <feColorMatrix type="matrix" values="0 0 0 0 0.0117647 0 0 0 0 0.380392 0 0 0 0 0.941176 0 0 0 0.48 0"/>
            <feBlend mode="normal" in2="BackgroundImageFix" result="effect1_dropShadow_219_107"/>
            <feBlend mode="normal" in="SourceGraphic" in2="effect1_dropShadow_219_107" result="shape"/>
        </filter>
        <clipPath id="clip0_219_107">
            <rect width="443" height="106" fill="white" transform="translate(14 10)"/>
        </clipPath>
    </defs>
</svg>
